<svg width="1600" height="900" viewBox="0 0 1600 900" fill="none" xmlns="http://www.w3.org/2000/svg">
  <defs>
    <linearGradient id="bg" x1="280" y1="60" x2="1280" y2="900" gradientUnits="userSpaceOnUse">
      <stop stop-color="#161A24"/>
      <stop offset="1" stop-color="#090B10"/>
    </linearGradient>
    <radialGradient id="glowA" cx="0" cy="0" r="1" gradientUnits="userSpaceOnUse" gradientTransform="translate(360 60) rotate(60) scale(500 720)">
      <stop stop-color="#F5A623" stop-opacity="0.28"/>
      <stop offset="1" stop-color="#F5A623" stop-opacity="0"/>
    </radialGradient>
    <radialGradient id="glowB" cx="0" cy="0" r="1" gradientUnits="userSpaceOnUse" gradientTransform="translate(1320 660) rotate(145) scale(420 520)">
      <stop stop-color="#3B9EFF" stop-opacity="0.18"/>
      <stop offset="1" stop-color="#3B9EFF" stop-opacity="0"/>
    </radialGradient>
  </defs>

  <rect width="1600" height="900" rx="30" fill="url(#bg)"/>
  <rect width="1600" height="900" rx="30" fill="url(#glowA)"/>
  <rect width="1600" height="900" rx="30" fill="url(#glowB)"/>

  <rect x="130" y="120" width="1340" height="660" rx="34" fill="#151A23" stroke="#2A3144" stroke-width="2"/>
  <rect x="180" y="190" width="760" height="520" rx="28" fill="#1A202C" stroke="#283146"/>
  <rect x="970" y="190" width="370" height="520" rx="28" fill="#10151E" stroke="#283146"/>

  <text x="180" y="112" fill="#F5A623" font-family="JetBrains Mono, monospace" font-size="20" letter-spacing="7">DARK CARD THEME</text>

  <text x="230" y="300" fill="#E7EBF5" font-family="Georgia, serif" font-size="78" font-weight="700">OpenClaw</text>
  <text x="230" y="384" fill="#E7EBF5" font-family="Georgia, serif" font-size="78" font-weight="700">Training Camp</text>
  <text x="230" y="450" fill="#7F88A9" font-family="Inter, Arial, sans-serif" font-size="28">Markdown-first HTML slides with a product-deck visual language.</text>

  <rect x="230" y="510" width="176" height="44" rx="22" fill="#1F2634" stroke="#2A3144"/>
  <text x="258" y="539" fill="#F1F4FB" font-family="JetBrains Mono, monospace" font-size="18">theme: dark-card</text>

  <rect x="428" y="510" width="120" height="44" rx="22" fill="#1F2634" stroke="#2A3144"/>
  <text x="457" y="539" fill="#F1F4FB" font-family="JetBrains Mono, monospace" font-size="18">slides: 6</text>

  <circle cx="1030" cy="275" r="8" fill="#3B9EFF"/>
  <circle cx="1030" cy="375" r="8" fill="#3B9EFF"/>
  <circle cx="1030" cy="475" r="8" fill="#3B9EFF"/>
  <circle cx="1030" cy="575" r="8" fill="#3B9EFF"/>

  <text x="1060" y="283" fill="#E7EBF5" font-family="Inter, Arial, sans-serif" font-size="28" font-weight="700">Deep dark canvas</text>
  <text x="1060" y="383" fill="#E7EBF5" font-family="Inter, Arial, sans-serif" font-size="28" font-weight="700">Editorial display type</text>
  <text x="1060" y="483" fill="#E7EBF5" font-family="Inter, Arial, sans-serif" font-size="28" font-weight="700">High-contrast cards</text>
  <text x="1060" y="583" fill="#E7EBF5" font-family="Inter, Arial, sans-serif" font-size="28" font-weight="700">Product launch energy</text>

  <rect x="180" y="760" width="1240" height="6" rx="3" fill="#232838"/>
  <rect x="180" y="760" width="420" height="6" rx="3" fill="#F5A623"/>
</svg>
